<?xml version="1.0" encoding="UTF-8"?>
<svg width="128px" height="28px" viewBox="0 0 128 28" version="1.1" xmlns="http://www.w3.org/2000/svg" xmlns:xlink="http://www.w3.org/1999/xlink">
    <!-- Generator: Sketch 55.1 (78136) - https://sketchapp.com -->
    <title>Logo</title>
    <desc>Created with Sketch.</desc>
    <g id="Page-1" stroke="none" stroke-width="1" fill="none" fill-rule="evenodd">
        <g id="About" transform="translate(-39.000000, -42.000000)" fill="#374050">
            <g id="TopPage" transform="translate(0.000000, -2.000000)">
                <g id="Logo" transform="translate(39.000000, 44.000000)">
                    <path d="M4.37143925,16.8796846 L4.37143925,25.0570896 L0,25.0570896 L0,3.02179211 L7.96780062,3.02179211 C10.5514065,3.02179211 12.4994161,3.64601526 13.8118879,4.89448029 C15.1243596,6.14294531 15.7805857,7.83875153 15.7805857,9.98194982 C15.7805857,12.0835326 15.1036911,13.7585314 13.7498816,15.0069964 C12.3960722,16.2554614 10.4687311,16.8796846 7.96780062,16.8796846 L4.37143925,16.8796846 Z M7.50275389,13.3527885 C10.0656909,13.3527885 11.3471402,12.2291869 11.3471402,9.98194982 C11.3471402,8.87913905 11.0474464,8.0364378 10.4480498,7.45382079 C9.84865329,6.87120378 8.86689779,6.57989964 7.50275389,6.57989964 L4.37143925,6.57989964 L4.37143925,13.3527885 L7.50275389,13.3527885 Z M27.6398255,3.02179211 L27.6398255,25.0570896 L23.2683863,25.0570896 L23.2683863,3.02179211 L27.6398255,3.02179211 Z M49.1100312,25.0570896 L44.1805358,17.5351254 L39.8090966,25.0570896 L34.817595,25.0570896 L41.7002866,13.7897491 L34.6315763,3.02179211 L39.8090966,3.02179211 L44.6455826,10.3876989 L48.9550156,3.02179211 L53.9465171,3.02179211 L47.0948287,14.1018638 L54.2875514,25.0570896 L49.1100312,25.0570896 Z M71.5413333,2.70967742 C73.5875492,2.70967742 75.4425504,3.1882485 77.1063925,4.14540502 C78.7702347,5.10256154 80.0826868,6.43943945 81.0437882,8.15607885 C82.0048895,9.87271826 82.485433,11.8130119 82.485433,13.9770179 C82.485433,16.141024 82.0048895,18.0865194 81.0437882,19.8135627 C80.0826868,21.540606 78.7702347,22.8826858 77.1063925,23.8398423 C75.4425504,24.7969988 73.5875492,25.2755699 71.5413333,25.2755699 C69.4951175,25.2755699 67.6401163,24.7969988 65.9762741,23.8398423 C64.312432,22.8826858 62.9999799,21.540606 62.0388785,19.8135627 C61.0777771,18.0865194 60.5972336,16.141024 60.5972336,13.9770179 C60.5972336,11.8130119 61.0777771,9.87271826 62.0388785,8.15607885 C62.9999799,6.43943945 64.312432,5.10256154 65.9762741,4.14540502 C67.6401163,3.1882485 69.4951175,2.70967742 71.5413333,2.70967742 Z M71.5413333,6.76716846 C70.2598648,6.76716846 69.1334296,7.05847259 68.1619938,7.64108961 C67.190558,8.22370662 66.4309892,9.06120601 65.8832648,10.1536129 C65.3355404,11.2460198 65.0616822,12.5204754 65.0616822,13.9770179 C65.0616822,15.4335604 65.3355404,16.708016 65.8832648,17.8004229 C66.4309892,18.8928298 67.190558,19.7303292 68.1619938,20.3129462 C69.1334296,20.8955632 70.2598648,21.1868674 71.5413333,21.1868674 C72.8228018,21.1868674 73.9492371,20.8955632 74.9206729,20.3129462 C75.8921087,19.7303292 76.6516774,18.8928298 77.1994019,17.8004229 C77.7471263,16.708016 78.0209844,15.4335604 78.0209844,13.9770179 C78.0209844,12.5204754 77.7471263,11.2460198 77.1994019,10.1536129 C76.6516774,9.06120601 75.8921087,8.22370662 74.9206729,7.64108961 C73.9492371,7.05847259 72.8228018,6.76716846 71.5413333,6.76716846 Z M94.6237009,3.02179211 L94.6237009,15.9433405 C94.6237009,17.6703838 95.0009017,18.9656468 95.7553146,19.8291685 C96.5097276,20.6926901 97.5999929,21.1244444 99.0261433,21.1244444 C100.431625,21.1244444 101.511556,20.6926901 102.265969,19.8291685 C103.020382,18.9656468 103.397583,17.6703838 103.397583,15.9433405 L103.397583,3.02179211 L107.738019,3.02179211 L107.738019,15.9433405 C107.738019,17.9825 107.360818,19.7043156 106.606405,21.1088387 C105.851992,22.5133619 104.808231,23.5589356 103.47509,24.2455914 C102.14195,24.9322472 100.627979,25.2755699 98.933134,25.2755699 C96.3081904,25.2755699 94.2103339,24.4848872 92.6395016,22.9034982 C91.0686692,21.3221092 90.2832648,19.0020798 90.2832648,15.9433405 L90.2832648,3.02179211 L94.6237009,3.02179211 Z M120.589358,21.6862509 L127.937097,21.6862509 L127.937097,25.0570896 L116.217919,25.0570896 L116.217919,3.02179211 L120.589358,3.02179211 L120.589358,21.6862509 Z" id="PIXOUL"></path>
                    <path d="M55.4883159,12.2710045 L87.5958428,12.1634776 C88.5835507,12.1601698 89.3869276,12.9581837 89.3902354,13.9458915 C89.3902487,13.9498844 89.3902487,13.9538772 89.3902354,13.9578701 C89.3868988,14.9541605 88.5800741,15.7609852 87.5837837,15.7643217 L55.4762569,15.8718486 C54.488549,15.8751564 53.6851721,15.0771425 53.6818643,14.0894347 C53.681851,14.0854418 53.681851,14.0814489 53.6818643,14.0774561 C53.6852009,13.0811657 54.4920256,12.274341 55.4883159,12.2710045 Z" id="Rectangle" fill-rule="nonzero" transform="translate(71.536050, 14.017663) rotate(-45.000000) translate(-71.536050, -14.017663) "></path>
                </g>
            </g>
        </g>
    </g>
</svg>